<?xml version="1.0" standalone="no"?><!DOCTYPE svg PUBLIC "-//W3C//DTD SVG 1.1//EN" "http://www.w3.org/Graphics/SVG/1.1/DTD/svg11.dtd"><svg t="1769770003031" class="icon" viewBox="0 0 1024 1024" version="1.1" xmlns="http://www.w3.org/2000/svg" p-id="26702" xmlns:xlink="http://www.w3.org/1999/xlink" width="200" height="200"><path d="M345.712 469.227l-16.838 70.654c74.32-1.946 106.04-19.359 218.018-108.401 111.99-89.029 98.112-241.945 98.112-241.945 34.693-8.709 56.495-33.879 56.495-33.879-86.229-88.063-133.791 0-133.791 0h-19.822c-54.51-29.995-152.619-13.548-152.619-13.548-14.868-86.131-111.665-17.414-111.665-17.414 3.31 29.69 42.958 24.515 42.963 24.515 0.013 0.022 0.035 0.048 0.048 0.07-5.976 77.29-32.165 114.866-57.284 133.093-28.629-2.867-48.479-5.737-48.479-5.737-13.214-45.49-42.616-39.684-42.616-39.684-47.565 3.869-49.549 128.722 0 186.791 49.549 58.067 167.478 45.485 167.478 45.485zM445.31 248.08c0.735-15.481 7.862-22.595 16.844-25.447 0.982 0.581 1.947 1.154 2.876 1.716 11.46 6.939 10.838 34.543 10.838 34.543-1.749 7.785-8.511 13.662-18.763 18.026-7.58-4.177-12.557-12.739-11.795-28.838z m-95.632-12.095c13.874-8.226 26.264-7.26 26.264 28.063 0 12.1-9.653 19.43-22.345 23.838a767.955 767.955 0 0 1-4.544-0.118c-5.733-16.29-10.084-45.428 0.625-51.783z" p-id="26703" fill="#B37D56"></path><path d="M316.646 487.299l-67.384-5.169s-23.785 33.556-25.117 54.203c-1.319 20.635-11.886 72.257 42.286 54.196 54.173-18.074 50.215-103.23 50.215-103.23zM592.812 413.742s-73.996 99.359-210.098 143.238c0 0-62.106 141.939-76.636 180.658-14.54 38.707-39.643 103.236-13.213 125.169 26.42 21.938 101.656-98.072 128.79-167.757l15.396 10.33s-59.617 101.933-50.371 140.648c9.246 38.716 46.532 74.253 96.448-56.772l21.146-55.485s9.242 68.381 73.991 100.638c0 0 26.434-134.187 130.817-98.052 0 0-107.031-0.004-101.738 105.804 0 0-89.852 16.845-89.852 39.388 0 22.55 5.278 51.308 265.6 17.389 79.28-10.319 40.952-149.674 13.207-193.551-27.753-43.884-183.668-205.184-203.487-291.645zM904.649 596.98c-29.08 30.975-113.634 69.683-113.634 69.683 26.807 10.535 34.355 65.81 34.355 65.81 13.813 3.146 22.46 0 22.46 0 81.931-37.423 56.819-135.493 56.819-135.493z" p-id="26704" fill="#B37D56"></path></svg>