<?xml version="1.0" standalone="no"?><!DOCTYPE svg PUBLIC "-//W3C//DTD SVG 1.1//EN" "http://www.w3.org/Graphics/SVG/1.1/DTD/svg11.dtd"><svg t="1769769966476" class="icon" viewBox="0 0 1024 1024" version="1.1" xmlns="http://www.w3.org/2000/svg" p-id="21291" xmlns:xlink="http://www.w3.org/1999/xlink" width="200" height="200"><path d="M295.931904 558.692c11.195392-2.733 21.24288-14.058 28.68224-25.133 4.512768-5.932 21.177344-29.614 36.312064-51.237 1.153024-1.408 2.347008-2.9 3.587072-4.499 9.570304-12.332 17.338368-23.854 23.646208-34.521 0 0 0.004096-0.005 0.004096-0.005l0 0c33.380352-56.447 25.696256-88.808 25.696256-88.808 46.836736-17.97 32.61952-53.094 32.61952-53.094l-57.711616 0c0 0-15.89248-9.8-23.422976-12.25-7.518208-2.455-7.518208-26.144-7.518208-47.791 0-21.643-14.222336-13.477-14.222336-13.477-11.713536 14.7-41.823232 44.105-41.823232 44.105l-39.31136 0c-4.178944-56.359-17.565696-61.264-17.565696-61.264-30.102528 10.624-35.132416 71.891-35.132416 71.891s-8.365056 42.482-18.405376 37.574c-10.031104-4.9-66.0736-17.966-69.41696 8.173-3.014656 23.534 35.339264 41.769 43.005952 45.167 11.185152 44.271 35.074048 73.974 56.52992 126.357C246.581248 561.139 272.508928 564.407 295.931904 558.692zM285.152256 519.483c-45.966336-23.972-0.65024-33.52 7.153664-34.935 9.50272 3.36 14.831616 7.322 17.58208 11.269-0.903168 0.955-1.66912 2.283-2.251776 4.068C301.784064 517.856 285.152256 519.483 285.152256 519.483zM332.621824 370.829c14.953472-5.724 16.833536 15.516 16.833536 15.516-0.328704 2.802-1.606656 8.678-3.32288 16.344-9.018368 6.54-15.744 6.14-20.752384 2.166C319.834112 396.206 320.165888 375.589 332.621824 370.829zM235.69408 378.18c8.96-16.823 19.618816 1.822 23.099392 8.921-2.154496 16.058-9.70752 14.76-9.70752 14.76-3.668992 0.827-7.044096 1.311-10.169344 1.514C233.3696 398.858 228.783104 391.162 235.69408 378.18z" p-id="21292" fill="#B37D56"></path><path d="M243.514368 561.348c1.11616 11.362 4.463616 67.395 38.479872 67.047 37.769216-0.378 38.475776-67.749 38.475776-67.749C283.66336 597.457 243.514368 561.348 243.514368 561.348z" p-id="21293" fill="#B37D56"></path><path d="M911.529984 532.553c0 0-6.687744-43.29-77.786112-60.448-71.095296-17.15-125.463552 17.974-211.615744 4.085 0.003072 0.003-108.72832-0.815-192.367616-67.795 0 0-30.953472 72.695-59.389952 94.749 0 0 35.96288 36.758 35.96288 51.459 0 14.704 5.85728 89.033-28.440576 148.67-34.28864 59.625-49.342464 129.057-44.327936 139.672 0 0 47.676416 14.706 126.302208-150.295 0 0 200.748032 4.084 248.41728-27.771 0 0 97.864704 73.519 101.210112 85.764 3.34336 12.255-13.386752 47.378-16.731136 69.434-3.34336 22.05-0.838656 63.709 40.144896 27.769 40.981504-35.938 47.680512-78.418 49.350656-87.397 1.67424-8.993 0.83456-55.545-27.60192-115.991S873.893888 536.638 911.529984 532.553z" p-id="21294" fill="#B37D56"></path><path d="M465.731584 847.842l10.03008 8.985c15.89248-9.801 49.349632-150.292 49.349632-150.292l-54.367232 0L465.731584 847.842z" p-id="21295" fill="#B37D56"></path><path d="M701.600768 685.299l0 176.618c0 0 31.77984-13.25 37.633024-54.91 5.861376-41.659 16.726016-67.793 28.443648-68.608C767.673344 738.398 735.050752 686.93 701.600768 685.299z" p-id="21296" fill="#B37D56"></path></svg>