<?xml version="1.0" standalone="no"?><!DOCTYPE svg PUBLIC "-//W3C//DTD SVG 1.1//EN" "http://www.w3.org/Graphics/SVG/1.1/DTD/svg11.dtd"><svg t="1769769863129" class="icon" viewBox="0 0 1024 1024" version="1.1" xmlns="http://www.w3.org/2000/svg" p-id="9269" xmlns:xlink="http://www.w3.org/1999/xlink" width="200" height="200"><path d="M909.569 574.027c-18.067-23.183-72.78-59.473-91.364-106.86-18.583-47.386-80.52-77.224-92.908-67.345 0 0-7.227 3.833-18.582 5.85-11.351 2.019-124.86-3.975-137.813-4.887 0 0-60.856-8.578-66.586 25.56 0 0 21.681 136.093-96.002 172.386-117.686 36.294-181.172 7.563-181.172 7.563s-23.228 176.926 0 190.532c23.226 13.612 71.23-99.803 92.907-130.047l61.942 8.372s-18.581 126.211-7.744 141.334c10.843 15.121 65.488 2.331 80.52-127.023 0 0 154.85 10.589 176.532 9.071 0 0-12.9 108.419 18.582 105.855 18.577-1.513 13.932-80.143 20.127-107.365 0 0 40.263-6.049 61.937-10.587 0 0-4.644 108.873 9.288 119.465 13.943 10.584 83.624-54.439 66.586-270.684 0 0 6.194-7.564 20.132 28.73 13.935 36.291 40.257 102.48 83.617 75.434 0.001 0.002 18.062-42.162 0.001-65.354z" p-id="9270" fill="#B37D56"></path><path d="M240.225 582.865c16.994 2.219 32.7 3.836 46.91 4.962 89.666 12.212 138.101-13.978 164.18-43.928 7.957-5.237 15.38-13.406 21.59-25.316 28.388-54.438-7.748-99.803-23.232-119.799-0.255-0.329-0.514-0.627-0.77-0.939-0.528-11.891-1.103-29.024-0.922-44.265 26.978-3.376 41.948-18.156 41.948-28.557 0-10.584-58.841-46.771-58.841-46.771 0-15.02-6.196-46.982-21.677-60.595-15.484-13.611-23.23 0-23.23 0-3.1 42.339-46.456 57.464-92.91 60.486-46.453 3.026-52.644-60.486-52.644-60.486-37.942 0.755-61.169 71.83-61.169 71.833-33.292 0.758-67.431 27.977-67.431 27.977 16.183 28.732 63.563 45.366 63.563 45.366 1.535 0.236 3.326 0.679 5.307 1.259-4.79 15.653-11.947 36.381-20.207 51.628-28.45 10.384-55.669 30.045-47.036 78.666 11.55 65.06 72.99 81.446 94.067 85.183 11.722 2.836 22.856 3.58 32.504 3.296z m-18.184-58.245c-7.733-9.094-15.466-51.4 12.4-43.452 20.492 5.845 10.852 30.675 4.31 43.416-5.836 1.895-11.484 1.602-16.71 0.036z m143.24-146.673c0.533 0.644 1.12 1.216 1.753 1.728-1.067 6.484-2.412 12.985-4.092 18.557-6.666-0.787-10.82-2.138-10.82-2.138-29.422-7.562-3.099-37.807 13.158-18.147z m-20.903 103.221c15.318-20.557 24.572 0.649 27.771 29.748-3.937 8.921-10.933 14.113-19.197 16.88-0.81-0.716-1.604-1.274-2.376-1.652-12.392-6.049-21.686-24.195-6.198-44.976z m-76.652-85.071c-1.738 2.669-11.932 5.182-24.967 7.365-2.081-6.672-3.878-14.984-3.667-23.387 3.323-0.037 6.45-0.447 9.275-1.366 20.905-6.807 24.776 9.071 19.359 17.388z" p-id="9271" fill="#B37D56"></path></svg>