<?xml version="1.0" standalone="no"?><!DOCTYPE svg PUBLIC "-//W3C//DTD SVG 1.1//EN" "http://www.w3.org/Graphics/SVG/1.1/DTD/svg11.dtd"><svg t="1769770017228" class="icon" viewBox="0 0 1024 1024" version="1.1" xmlns="http://www.w3.org/2000/svg" p-id="28012" xmlns:xlink="http://www.w3.org/1999/xlink" width="200" height="200"><path d="M768.406 282.877c5.698-34.166 21.354-106.769-8.54-127.44-48.522-33.55-108.195 60.53-108.195 60.53-193.608-44.131-294.679 7.119-294.679 7.119-72.602-93.956-111.039-62.638-111.039-62.638-32.744 28.47 0 103.921 0 103.921-52.675 75.45-71.176 270.478-51.248 407.139 19.927 136.662 69.757 259.09 101.075 251.975 31.317-7.114 41.285-64.061 41.285-64.061 175.099 45.557 333.116-1.426 333.116-1.426s48.399 48.403 68.331 46.978c19.931-1.426 49.822-55.52 72.602-156.591 62.934-279.221-42.708-465.506-42.708-465.506z m-437.485 59.788c0-10.007 7.211-18.119 16.107-18.119s16.107 8.112 16.107 18.119-7.211 18.119-16.107 18.119-16.107-8.112-16.107-18.119z m179.103 253.396c-86.874 0-157.303-40.152-157.303-89.685s70.429-89.685 157.303-89.685c86.879 0 157.309 40.152 157.309 89.685s-70.43 89.685-157.309 89.685z m150.642-225.318c-8.896 0-16.107-8.112-16.107-18.119s7.211-18.12 16.107-18.12 16.107 8.112 16.107 18.12c0.001 10.007-7.21 18.119-16.107 18.119zM438.164 487.914c-13.693 0-24.788 11.386-24.788 25.435 0 14.046 11.095 25.433 24.788 25.433 13.682 0 24.776-11.387 24.776-25.433 0.001-14.049-11.094-25.435-24.776-25.435z m151.757 0c-13.693 0-24.786 11.386-24.786 25.435 0 14.046 11.093 25.433 24.786 25.433 13.681 0 24.776-11.387 24.776-25.433 0.001-14.049-11.095-25.435-24.776-25.435z" fill="#B37D56" p-id="28013"></path></svg>