<?xml version="1.0" standalone="no"?><!DOCTYPE svg PUBLIC "-//W3C//DTD SVG 1.1//EN" "http://www.w3.org/Graphics/SVG/1.1/DTD/svg11.dtd"><svg t="1769769918724" class="icon" viewBox="0 0 1024 1024" version="1.1" xmlns="http://www.w3.org/2000/svg" p-id="16037" xmlns:xlink="http://www.w3.org/1999/xlink" width="200" height="200"><path d="M655.443968 844.151c3.134464-10.718 36.046848-12.245 36.685824-50.511 0.647168-38.265-58.628096-29.083-58.628096-29.083-12.53888-24.491 4.701184-41.328 4.701184-41.328 17.241088 9.19 47.02208 13.781 47.02208 13.781 31.352832-6.123-14.103552-94.902-34.482176-108.68-20.376576-13.77-42.3168-41.324-42.3168-41.324 105.015296-50.515 36.050944-185.501 36.050944-185.501 106.58304-216.119 47.65696-273.696 47.65696-273.696-113.767424 26.02-152.676352 247.964-152.676352 247.964l-35.181568 0c-0.509952-8.853 3.442688-15.305 3.442688-15.305 90.9056-208.169 4.697088-251.793 4.697088-251.793-138.70592 97.962-113.634304 280.88-108.146688 286.235 5.487616 5.355 7.799808 29.079 7.799808 29.079-101.13024 81.889-5.448704 156.895 2.393088 167.609 3.057664 4.182 2.648064 9.762 1.019904 15.013l-1.414144 0.296c0 0 0 0-37.614592 16.837-100.928512 45.175-84.636672 125.513-36.04992 105.608 48.585728-19.896 50.487296-9.179 50.487296-9.179l-6.606848 53.574c-120.686592-29.086-84.640768 50.504-51.719168 64.284 32.913408 13.778 6.265856 18.365 6.265856 18.365-131.92192 9.803-78.36672 51.823-78.36672 51.823 167.712768 34.979 228.830208-28.859 228.830208-28.859-32.90624-41.329 0-52.046 10.978304-47.451 10.97216 4.595 56.428544 29.078 40.749056 32.143-15.673344 3.059-59.557888 13.773-12.535808 32.142 84.323328 32.937 210.02752-12.25 210.02752-12.25C727.548928 841.088 655.443968 844.151 655.443968 844.151zM456.946688 498.172l0.223232 0.055c-0.22016-0.303-0.425984-0.611-0.627712-0.92-2.994176-7.09 0.292864-16.886 4.067328-24.559 2.625536-1.616 5.925888-2.582 9.8816-2.582 16.454656 0 3.92704 28.829 3.92704 28.829l-4.548608 7.079C462.88384 504.891 458.9056 501.983 456.946688 498.172zM543.177728 473.165c1.463296-3.018 5.987328-6.093 10.835968-5.949 4.67968 0.138 8.188928 4.059 10.816512 9.545-3.37408 20.254-10.42944 22.971-15.444992 21.982C538.551296 495.198 543.177728 473.165 543.177728 473.165zM529.893376 550.214c-1.251328 7.874-4.769792 13.119-9.53344 16.498-9.063424 0.693-22.11328 0.398-31.8464 0.398-15.67232 0-21.159936-13.014 10.97216-21.429C519.498752 540.439 527.045632 545.585 529.893376 550.214z" p-id="16038"></path></svg>