<?xml version="1.0" standalone="no"?><!DOCTYPE svg PUBLIC "-//W3C//DTD SVG 1.1//EN" "http://www.w3.org/Graphics/SVG/1.1/DTD/svg11.dtd"><svg t="1769769993903" class="icon" viewBox="0 0 1024 1024" version="1.1" xmlns="http://www.w3.org/2000/svg" p-id="25297" xmlns:xlink="http://www.w3.org/1999/xlink" width="200" height="200"><path d="M182.223 438.153c8.925 9.815 24.686 25.175 53.585 0 28.9-25.174 58.063-3.269 59.176-7.625 1.116-4.356 3.351-25.082 33.495-19.622 30.144 5.455 35.726-32.715 35.726-32.715 16.75-3.265 27.91-43.064 27.91-43.064-16.746-1.625-88.198-94.091-88.198-94.091l-3.351-31.842c-20.098-13.088-88.484-6.538-88.484-6.538-0.128 0.067-0.174 0.201-0.154 0.388-7.783 3.162-31.269 19.481-44.388 28.791l-37.793-7.378 17.863 32.703-16.747 23.99s24.563-6.546 36.84-5.451c12.289 1.091 30.148 27.26 30.148 27.26-31.262-14.167-49.125-10.082-49.125-10.082-70.343 46.623 3.351 36.25 15.63 38.703 12.28 2.453 3.347 16.079 3.347 16.079-72.57 35.984-39.078 114.486-25.675 114.486 13.399-0.001 31.266-33.798 40.195-23.992z m61.675-198.188c-6.334 3.65-15.246 4.542-24.723 3.965-2.502-7.445 6.624-13.186 14.49-16.63 6.302 6.592 11.261 12.075 10.233 12.665zM294.98 188.48l20.937-40.158-34.331 16.439L264 133.694l-21.77 31.067-30.148-16.439 10.886 40.158z" p-id="25298" fill="#B37D56"></path><path d="M876.943 304.607c-69.503-10.632-163.287-6.539-200.13 78.501 0.012-0.008 9.218-127.574 140.687-132.479 0 0-169.147-71.968-189.248 178.267l-177.52-32.166-53.593-33.252-31.82 73.592v14.72h25.12s28.464 143.924 175.841 55.606l8.371 9.274s-75.358 88.861-197.614-10.906c0 0-9.211-22.9-4.187-42.523 0 0-25.957 8.179-18.422-25.344 0 0-26.801-14.725-49.406 11.444 0 0-30.984-8.175-63.64 19.626 0 0-66.152-17.174-76.203 6.542-10.05 23.707-15.905 63.78 35.168 121.027 51.082 57.239 107.183 157 174.174 92.402 0 0 51.918 101.401 149.89-17.17 0 0 102.155 19.623 169.146-224.062 0 0 93.785-50.705 145.703 11.456 51.913 62.145 44.386 134.104 39.355 142.278-5.023 8.183 56.94-64.597 28.473-132.471-28.473-67.875-159.937-99.766-217.713-56.427 0 0 65.316-80.955 139.839-68.687 74.522 12.264 101.32 44.15 104.667 62.148-0.002 0.005 12.56-90.769-56.938-101.396zM450.17 746.727l-27.91-4.373-23.999 66.517c-22.887 0-65.32 7.634-56.386 20.722 8.937 13.08 58.063-10.91 35.731 7.633-22.324 18.527-34.605 55.599-18.977 54.512 15.629-1.087 41.309-50.155 50.238-55.599 8.933-5.459 29.59 16.347 29.59 16.347-3.907-14.168 0-83.958 0-83.958h16.187c-11.17-8.729-4.474-21.801-4.474-21.801z" p-id="25299" fill="#B37D56"></path><path d="M342.99 740.181c-11.168-8.726-4.468-21.801-4.468-21.801l-27.909-4.364-24.004 66.512c-22.89 0-65.32 7.63-56.39 20.714 8.938 13.08 58.063-10.901 35.734 7.629-22.331 18.539-34.613 55.607-18.985 54.523 15.634-1.086 41.313-50.159 50.246-55.605 8.933-5.452 29.59 16.356 29.59 16.356-3.911-14.171 0-83.964 0-83.964h16.187z" p-id="25300" fill="#B37D56"></path></svg>