<?xml version="1.0" standalone="no"?><!DOCTYPE svg PUBLIC "-//W3C//DTD SVG 1.1//EN" "http://www.w3.org/Graphics/SVG/1.1/DTD/svg11.dtd"><svg t="1769769911579" class="icon" viewBox="0 0 1024 1024" version="1.1" xmlns="http://www.w3.org/2000/svg" p-id="14828" xmlns:xlink="http://www.w3.org/1999/xlink" width="200" height="200"><path d="M199.64 644.555l140.2-141.026s57.485 26.014 61.693 49.292c4.205 23.275 47.67 76.677 51.873 8.213l7.014-21.906-28.042 9.98s-49.26-44.842 1.403-59.271c33.651-9.586 49.776 41.078 57.485 49.291 7.714 8.218-19.625 28.752-19.625 28.752s-13.39 28.752 20.996 17.8c34.382-10.954 74.01-37.189 31.58-102.691-5.454-8.417-10.449-15.232-15.016-20.719-9.831-19.551-28.94-52.95-53.333-73.071a230.1 230.1 0 0 0-39.406-26.164c12.617-4.663 26.154-9.354 36.005-11.946 24.302-6.391 10.289-29.207-24.298-33.772-22.461-2.965-41.37 16.014-51.87 29.688-23.03-6.41-48.082-8.667-73.955-4.021-60.987 10.958-114.973 62.303-141.962 109.882s-49.777 123.915-33.305 186.557c16.48 62.64 22.088 53.057 16.48 62.64 0 0-56.089 15.063-14.019 56.141 0 0 19.628-52.031 23.834 12.321 0 0 44.864-47.919 47.673-6.845 0 0 40.66-19.168 56.078-16.431-0.002-0.002-51.877-43.817-57.482-102.694z m250.266-215.993c0-0.671 9.742 12.705 16.487 22.046 0.113 1.553 1.03 16.44-5.623 12.868-7.012-3.769-11.214-7.874-11.214-7.874s0.35-26.016 0.35-27.04zM143.085 702.864l-0.02 0.032 0.02-0.032z m-0.547 0.935l-1.148 1.963 1.148-1.963z m-1.242 2.125z m163.488-150.401s67.299 96.787 86.002 123.265v11.867s-32.72-10.868-37.396 8.257c-4.67 19.126-6.544 37.386 5.611 40.122l23.37-20.996 8.414 27.383 26.165-23.732 15.89 10.039s51.406-22.817 55.15-37.425L339.37 519.045l-34.587 36.478z m252.373-41.95c0.931 23.728-27.105 71.101-27.097 71.097-71.336 15.315-61.694 73.119-61.694 73.119l19.631-5.956 5.607 17.824 27.111-22.822 13.087 12.782 23.36-11.867v-32.856c42.064-12.778 47.674-59.37 47.674-59.37l40.19-51.083c-48.61-14.605-87.869 9.132-87.869 9.132z m366.411 111.355c-5.605-31.947-29.912-91.277-32.715-118.663-2.802-27.383-71.978-57.509-67.299 0 0 0-26.167-72.246-51.408-83.133-25.237-10.886-130.862-43.746-176.665-43.746-45.797 0 89.732-78.235 160.769-48.703 71.04 29.532 71.04 63.174 34.585 92.449l29.906 32.013s67.309-63.627 26.184-124.462c-41.131-60.838-132.733-51.708-208.448-27.062-75.712 24.646-80.384 51.118-91.6 62.068l-75.712-5.474c0 0.006 48.136 37.886 79.457 128.709 0 0 134.59-7.679 169.177 10.762 34.582 18.448 85.985 75.042 81.317 105.162 0 0-80.376 24.645-34.58 74.851 0 0 0.939-28.336 22.43-27.862 0 0 2.454 28.777 12.451 36.991 0 0 16.523-29.211 27.741-30.126 0 0 5.606 34.687 14.957 34.687 0 0 3.742-27.382 17.762-27.382 14.024 0 67.3-9.129 61.691-41.079zM181.401 396.386s-34.887-0.949-39.255-51.211c-4.206-48.397 1.402-56.611 25.24-59.348 0 0 16.821 6.846 12.616 41.075-4.205 34.232 78.523-18.901 49.074-56.005-29.442-37.101-100.946-59.009-119.178 27.251-18.225 86.259 12.623 169.098 71.503 98.238z" fill="#B37D56" p-id="14829"></path></svg>