<?xml version="1.0" standalone="no"?><!DOCTYPE svg PUBLIC "-//W3C//DTD SVG 1.1//EN" "http://www.w3.org/Graphics/SVG/1.1/DTD/svg11.dtd"><svg t="1769692097839" class="icon" viewBox="0 0 1024 1024" version="1.1" xmlns="http://www.w3.org/2000/svg" p-id="9335" xmlns:xlink="http://www.w3.org/1999/xlink" width="200" height="200"><path d="M307.25 273.36H189.03V170.05c0-32.07 26-58.06 58.06-58.06h60.15v161.37zM307.25 918.85h-67.66c-27.92 0-50.56-22.64-50.56-50.56V757.48h118.21v161.37zM189.03 320.27h118.21v176.38H189.03zM189.03 543.57h118.21v176.38H189.03zM784.37 116.4H355.01v806.82h429.36c29.22 0 52.85-23.63 52.85-52.85V169.25c0-29.22-23.63-52.85-52.85-52.85z m-23.25 460.92h-133.2V250.85h133.2v326.47z" fill="#C0C2C2" p-id="9336"></path></svg>