<?xml version="1.0" standalone="no"?><!DOCTYPE svg PUBLIC "-//W3C//DTD SVG 1.1//EN" "http://www.w3.org/Graphics/SVG/1.1/DTD/svg11.dtd"><svg t="1769692055413" class="icon" viewBox="0 0 1024 1024" version="1.1" xmlns="http://www.w3.org/2000/svg" p-id="7066" xmlns:xlink="http://www.w3.org/1999/xlink" width="200" height="200"><path d="M241.637403 189.861126h231.973679v99.030995H241.637403V189.861126z m306.535065 0h231.973679v99.030995H548.172468V189.861126zM241.637403 0h231.973679v99.030996H241.637403V0z m306.535065 0h231.973679v99.030996H548.172468V0zM241.637403 379.722251h231.973679V478.753247H241.637403V379.722251z m306.535065 0h231.973679V478.753247H548.172468V379.722251zM243.853853 735.107879h231.92935v99.030995H243.853853v-99.030995z m306.490736 0h231.973679v99.030995H550.344589v-99.030995zM243.853853 924.969004h231.92935V1024H243.853853v-99.030996z m306.490736 0h231.973679V1024H550.344589v-99.030996zM243.853853 545.246753h538.464415v99.030996H243.853853V545.246753z" p-id="7067"></path></svg>