<?xml version="1.0" standalone="no"?><!DOCTYPE svg PUBLIC "-//W3C//DTD SVG 1.1//EN" "http://www.w3.org/Graphics/SVG/1.1/DTD/svg11.dtd"><svg fill="#2F2F2F" t="1769692118834" class="icon" viewBox="0 0 1024 1024" version="1.1" xmlns="http://www.w3.org/2000/svg" p-id="11185" xmlns:xlink="http://www.w3.org/1999/xlink" width="200" height="200"><path d="M151.903665 63.09706l124.910894 0 0 170.892135-124.910894 0 0-170.892135Z" fill="#2F2F2F" p-id="11186"></path><path d="M151.903665 538.393113l124.910894 0 0 196.062398-124.910894 0 0-196.062398Z" fill="#2F2F2F" p-id="11187"></path><path d="M151.903665 286.775422l124.910894 0 0 198.831464-124.910894 0 0-198.831464Z" fill="#2F2F2F" p-id="11188"></path><path d="M151.903665 787.241738l124.910894 0 0 173.661202-124.910894 0 0-173.661202Z" fill="#2F2F2F" p-id="11189"></path><path d="M872.095311 63.09706 341.682963 63.09706l0 897.80588 530.413372 0L872.096335 63.09706zM775.282359 570.047044 629.314893 570.047044 629.314893 219.7284l145.967466 0L775.282359 570.047044z" fill="#2F2F2F" p-id="11190"></path></svg>